# xmcd CD database file
#
# Track frame offsets:
#	150
#	23094
#	41151
#	60946
#	113247
#	150309
#	178509
#	202801
#	276494
#
# Disc length: 4133 seconds
#
# Revision: 0
# Processed by: cddbd v1.5.2PL0 Copyright (c) Steve Scherf et al.
# Submitted via: CDex 1.51
#
DISCID=6e102309
DTITLE=Masada - Live At Tonic - 9/30/99 Disc 1
DYEAR=1900
DGENRE=Jazz
TTITLE0=Hath-Arob
TTITLE1=Sippur
TTITLE2=Jair
TTITLE3=Ne'eman
TTITLE4=Kedushah
TTITLE5=Beeroth
TTITLE6=Kochot
TTITLE7=Shechem
TTITLE8=Paran
EXTD=
EXTT0=
EXTT1=
EXTT2=
EXTT3=
EXTT4=
EXTT5=
EXTT6=
EXTT7=
EXTT8=
PLAYORDER=
